<svg width="364" height="327" xmlns="http://www.w3.org/2000/svg">

 <g>
  <title>background</title>
  <rect fill="none" id="canvas_background" height="329" width="366" y="-1" x="-1"/>
 </g>
 <g>
  <title>Layer 1</title>
  <g id="svg_5">
   <g id="svg_6">
    <path id="svg_7" d="m252.224891,107.204l0.096,0.104c0.031,0.025 0.027,0.018 -0.096,-0.104z" fill="#010202"/>
    <path id="svg_8" d="m252.224891,107.204c0.087,0.087 0.115,0.116 0.112,0.116c0,0 -0.007,-0.005 -0.017,-0.013l-0.095,-0.103m2.313,-2.345l-4.716,4.599l0.097,0.103l0.132,0.141l0.147,0.125l0.92,0.775l1.22,0.013l2.208,0l0.838,-2.044c0.199,-0.48 0.719,-2.168 -0.846,-3.712l0,0z" fill="#FFD700"/>
   </g>
   <g id="svg_9">
    <path id="svg_10" d="m354.168891,125.56c4.256,-0.946 6.356,-1.471 5.713,-1.422c-0.56,0.041 -4.054,0.781 -7.763,1.644c-3.706,0.862 -9.8,2.165 -13.54,2.896c-3.741,0.729 -12.421,2.596 -19.292,4.146c-8.994,2.029 -12.79,2.821 -13.556,2.834c-0.584,0.01 -2.592,0.315 -4.463,0.682c-1.868,0.37 -3.896,0.721 -4.506,0.785c-0.357,0.035 -2.586,0.473 -5.734,1.116c-0.134,-0.247 -0.271,-0.502 -0.428,-0.798c-0.018,-0.035 -0.034,-0.064 -0.051,-0.1c0.543,-0.122 1.078,-0.244 1.59,-0.363c3.316,-0.772 7.115,-1.563 8.441,-1.763c1.803,-0.271 2.461,-0.422 2.62,-0.608c0.346,-0.405 5.737,-1.573 13.68,-2.96c4.079,-0.711 8.737,-1.56 10.349,-1.882c1.615,-0.328 3.054,-0.543 3.194,-0.485c0.148,0.058 0.732,0 1.304,-0.136c0.752,-0.177 0.833,-0.254 0.286,-0.286c-0.409,-0.025 -0.766,-0.118 -0.792,-0.209c-0.025,-0.09 -1.121,0.007 -2.438,0.219c-3.603,0.579 -3.486,0.46 0.387,-0.396c2.406,-0.534 3.063,-0.721 2.111,-0.602c-0.759,0.097 -4.513,0.859 -8.346,1.695c-7.203,1.573 -15.091,2.966 -15.158,2.677c-0.024,-0.104 1.566,-0.505 4.198,-1.056l4.233,-0.888l-5.145,0.795c-4.142,0.64 -10.774,1.835 -21.701,3.923c-1.646,-3.138 -2.844,-5.135 -2.731,-6.082c0.017,-0.476 -0.222,-1.354 -0.533,-1.955c-0.412,-0.74 -1.271,-2.307 -2.484,-3.982c-1.129,-1.396 -2.59,-3.195 -4.04,-4.986c-1.241,-1.461 -1.924,-2.169 -2.157,-2.224c-1.102,-1.676 -2.037,-2.95 -2.494,-3.58c-1.457,-2.098 -5.166,-7.325 -8.348,-10.48c-7.026,-7.557 -18.615,-19.804 -43.393,-30.642c-3.367,-1.226 -6.384,-2.319 -9.162,-3.224l-10.529,-57.821l-27.588,52.943c-2.974,0.095 -5.842,0.267 -8.443,0.487c-3.795,0.296 -7.012,0.997 -9.326,1.268c-2.305,0.334 -3.691,0.44 -3.691,0.44c-0.033,-0.151 -2.777,0.45 -7.475,1.634c-4.113,0.959 -5.998,1.673 -4.348,1.043c3.865,-1.168 9.911,-3.646 7.622,-3.243c-0.848,0.203 -7.841,1.73 -15.086,4.797c-7.339,2.772 -16.458,7.721 -20.452,10.342c-1.02,0.65 -2.8,1.625 -5.08,3.204c-2.264,1.74 -5.045,3.877 -8.164,6.276c-3.076,2.432 -5.438,4.977 -8.465,7.724l-1.092,1.03l-0.679,0.665l-0.275,0.315l-0.548,0.628l-2.211,2.541l-4.44,5.147c-7.599,9.943 -12.192,17.998 -15.339,24.851c-3.294,6.816 -5.126,12.424 -7.02,18.063c-2.457,8.953 -3.519,14.022 -3.734,16.716c-0.336,2.676 -0.279,2.931 -0.051,2.467c0.215,-0.44 0.254,0.087 0.109,1.448c-0.201,1.924 0.247,-0.904 0.887,-5.105c0.554,-4.214 2.201,-9.645 2.928,-13.229c1.055,-3.789 2.299,-6.774 2.299,-6.774c0.08,0.025 -0.024,0.579 -0.23,1.229c-0.209,0.65 -0.246,1.078 -0.086,0.946c0.26,-0.136 -0.663,2.394 -1.287,5.771c-0.736,3.568 -1.486,7.21 -2.11,10.24c-0.323,2.178 -1.589,10.786 -1.599,19.777c-0.689,0.198 -1.35,0.385 -1.911,0.537c-2.871,0.778 -3.415,0.875 -4.444,0.785l-1.172,-0.1l-2.385,1.091c-1.889,0.865 -2.65,1.119 -3.68,1.222c-0.715,0.068 -1.918,0.315 -2.68,0.547c-1.171,0.354 -1.371,0.345 -1.293,-0.064c0.051,-0.264 0.56,-0.729 1.125,-1.035c1.603,-0.865 1.191,-0.85 -1.304,0.048c-2.495,0.901 -3.683,1.078 -2.427,0.363c1.225,-0.701 -0.357,-0.231 -1.712,0.506c-0.663,0.36 -2.271,1.087 -3.581,1.618c-1.306,0.527 -4.123,1.865 -6.26,2.969c-3.778,1.956 -3.915,2.008 -5.023,1.927c-1.09,-0.08 -1.121,-0.064 -0.719,0.39c0.357,0.396 0.097,0.614 -1.681,1.396c-2.729,1.203 -4.589,1.637 -5.265,1.229c-0.285,-0.174 -0.826,-0.244 -1.203,-0.158c-0.949,0.223 -3.87,1.406 -5.973,2.423c-2.109,1.022 -2.15,1.296 -0.162,1.181c0.907,-0.055 1.357,0.048 1.15,0.264c-0.24,0.248 0.445,0.271 2.324,0.074c1.467,-0.154 2.866,-0.209 3.11,-0.122c0.259,0.093 2.167,-0.155 4.566,-0.586c3.913,-0.708 4.148,-0.721 4.681,-0.283c0.308,0.254 0.269,0.718 -0.082,1.029c-0.457,0.402 -0.424,0.551 0.106,0.509c0.444,-0.035 -0.36,0.46 -1.976,1.219c-2.541,1.19 -2.654,1.284 -1.697,1.429c0.884,0.132 0.891,0.209 0.051,0.547c-0.539,0.219 -1.502,0.473 -2.143,0.572c-1.451,0.226 -5.359,1.657 -4.763,1.747c0.239,0.035 1.114,-0.094 1.944,-0.286c0.834,-0.196 1.816,-0.354 2.188,-0.354c0.373,0 1.201,-0.093 1.84,-0.209c1.072,-0.196 1.092,-0.151 0.266,0.544c-0.497,0.415 -1.616,1.022 -2.491,1.354c-1.185,0.447 -1.394,0.607 -0.82,0.644c0.572,0.032 0.112,0.392 -1.812,1.418c-1.415,0.757 -2.538,1.531 -2.494,1.718c0.043,0.188 -0.291,0.464 -0.745,0.615c-0.624,0.205 -0.624,0.276 0.001,0.292c0.652,0.02 2.201,-0.354 7.385,-1.778c4.389,-1.207 6.711,-1.782 7.023,-1.734c0.292,0.045 0.839,-0.119 1.467,-0.438c1.279,-0.652 2.348,-0.897 3.979,-0.913c1.221,-0.013 1.398,-0.059 2.738,-0.705c2.938,-1.412 9.705,-3.294 9.837,-2.734c0.077,0.331 -1.718,1.525 -1.827,1.216c-0.035,-0.105 0.232,-0.312 0.596,-0.456c0.965,-0.387 0.021,-0.444 -1.496,-0.087c-0.721,0.167 -1.283,0.418 -1.252,0.553c0.033,0.139 0.362,0.177 0.734,0.094c1.373,-0.325 0.685,0.154 -0.919,0.634c-0.912,0.273 -1.647,0.563 -1.626,0.644c0.016,0.08 0.803,0.016 1.743,-0.146c1.056,-0.177 1.737,-0.17 1.779,0.02c0.11,0.467 1.822,0.325 4.667,-0.39c1.406,-0.35 5.236,-1.251 8.51,-1.997c5.491,-1.258 5.924,-1.329 5.619,-0.956c-0.195,0.243 -0.049,0.303 0.755,0.181c0.397,1.994 0.989,4.798 1.732,7.473c2.651,8.197 3.234,10.504 1.705,7.122l-0.981,-2.188l1.326,3.755c0.627,2.094 1.879,4.478 2.203,5.497c0.379,1.001 1.094,2.342 1.586,2.97c0.488,0.634 1.297,2.081 1.797,3.227c1.365,2.757 3.102,6.482 2.557,6.016c-0.232,-0.219 -0.311,0.058 -0.168,0.617c0.24,0.802 0.695,1.956 2.998,5.739c1.164,1.718 2.676,3.945 4.063,5.99l-21.344,40.964l11.418,-3.828l0.022,-0.003l31.759,-10.724c2.873,2.202 3.882,3.209 1.98,2.07c-2.117,-1.277 0.211,0.585 2.504,1.991c1.08,0.74 3.916,2.143 6.064,3.41c1.901,1.151 5.911,3.21 9.574,4.594c0.575,0.351 1.119,0.682 1.791,1.084c3.584,2.232 5.424,3.056 3.809,2.336c-3.558,-1.905 -9.584,-4.431 -7.678,-3.096c0.74,0.457 6.765,4.32 14.057,7.273c7.152,3.23 17.096,6.181 21.774,7.148c1.183,0.261 3.128,0.83 5.856,1.329c2.831,0.369 6.312,0.826 10.211,1.335c3.896,0.456 7.366,0.324 11.449,0.524l1.5,0.045l0.951,0.01l0.414,-0.029l0.834,-0.058l3.358,-0.232l6.778,-0.501c12.404,-1.657 21.351,-4.105 28.42,-6.724c1.539,-0.537 2.976,-1.083 4.358,-1.635l23.882,17.021c0.019,0.013 0.045,0.01 0.065,0.022l7.554,5.327l-6.489,-35.626c1.208,-0.825 2.153,-1.528 2.825,-2.099c2.133,-1.657 2.273,-1.879 1.783,-1.709c-0.463,0.158 -0.119,-0.241 0.945,-1.104c1.503,-1.216 -0.814,0.467 -4.236,2.982c-0.463,0.355 -0.959,0.711 -1.473,1.068l-0.244,-1.327c2.642,-1.979 9.778,-7.44 15.91,-13.838c3.287,-3.538 6.063,-6.961 8.171,-9.352c1.904,-2.554 3.072,-4.156 3.072,-4.156c0.055,0.039 -0.38,0.927 -0.968,1.972c-1.021,1.809 -1.011,1.814 0.228,0.077c0.684,-1.032 3.312,-4.79 5.446,-8.569c3.922,-7.669 5.139,-9.712 3.833,-6.241l-0.854,2.242l1.719,-3.593c1.035,-1.924 1.834,-4.494 2.328,-5.443c0.438,-0.978 0.882,-2.429 0.979,-3.224c0.1,-0.794 0.555,-2.39 1.01,-3.552c0.984,-2.914 2.391,-6.777 2.445,-6.061c0.013,0.318 0.261,0.178 0.555,-0.318c0.398,-0.736 0.891,-1.875 1.938,-6.18c0.644,-3.352 1.601,-8.351 2.165,-11.304c0.602,-5.488 0.733,-6.489 1.273,-8.28l0.605,-2.05c0,0 -0.01,-1.177 -0.021,-2.358l-0.212,-2.097c-0.339,-3.333 -0.385,-4.643 -0.211,-6.309c0.052,-0.801 0.1,-1.519 0.142,-2.178l0.022,-0.608l-0.026,-0.83l-0.025,-0.318c-0.037,-0.396 -0.074,-0.771 -0.111,-1.174c-0.242,-2.155 -0.217,-2.496 0.186,-2.223c0.258,0.18 0.679,1.226 0.935,2.332c0.172,0.691 0.308,1.229 0.405,1.621l0.007,0.025l0.005,0.014l0.006,0.588l0.013,0.042l0.02,0.074l0.035,0.08c0.022,0.026 0.041,-0.003 0.052,-0.09l0.008,-0.074c0,-0.241 0,-0.46 0,-0.685c-0.006,-0.087 -0.013,-0.168 -0.021,-0.28c-0.02,-0.189 -0.045,-0.453 -0.087,-0.836c-0.077,-0.589 -0.199,-1.506 -0.37,-2.786c-0.675,-4.688 -0.757,-6.833 -0.146,-4.397c0.596,2.399 0.266,-0.563 -0.363,-3.179c-0.239,-1.286 -1.253,-4.281 -1.874,-6.701c-0.598,-2.432 -2.258,-7.633 -4.134,-11.381c-0.212,-0.482 -0.405,-0.924 -0.59,-1.34c3.247,-0.944 6.394,-1.926 7.013,-2.215c0.266,-0.126 -0.537,0.045 -1.782,0.373s-2.483,0.563 -2.754,0.524c-0.237,-0.037 -1.228,0.156 -2.819,0.545c-0.47,-1.054 -0.846,-1.885 -1.148,-2.558c2.985,-0.831 7.74,-2.041 12.43,-3.138c4.617,-1.077 7.962,-1.927 7.939,-2.021c-0.061,-0.267 -4.664,0.679 -10.07,2.068c-2.096,0.541 -6.311,1.588 -10.515,2.615c-0.145,-0.322 -0.271,-0.603 -0.38,-0.854c2.465,-0.571 5.689,-1.311 9.95,-2.285c16.589,-3.79 21.399,-4.948 22.337,-5.366c0.594,-0.268 2.086,-0.602 4.943,-1.11c2.251,-0.401 5.005,-0.945 6.116,-1.209c1.292,-0.303 0.544,-0.216 -2.074,0.247c-5.324,0.943 -7.875,1.284 -7.929,1.065c-0.025,-0.113 0.824,-0.338 2.323,-0.618c1.703,-0.312 2.641,-0.579 3.364,-0.945c0.755,-0.386 1.76,-0.663 4.069,-1.12l3.071,-0.607l-0.36,-0.592c-0.353,-0.579 -0.308,-0.605 2.308,-1.342c1.467,-0.415 4.615,-1.213 6.994,-1.772c6.294,-1.483 4.624,-1.258 -2.06,0.28c-3.128,0.721 -6.086,1.322 -6.568,1.335c-1.411,0.045 -1.123,-0.396 0.521,-0.802c1.476,-0.359 1.473,-0.363 -0.147,-0.1c-0.912,0.148 -1.789,0.216 -1.944,0.148c-0.398,-0.17 6.719,-1.99 14.869,-3.805zm-73.33,25.676c-0.843,0.179 -1.629,0.344 -2.388,0.503c-0.193,-0.685 -0.369,-1.28 -0.525,-1.768c0.779,-0.188 1.543,-0.373 2.279,-0.552c0.247,0.683 0.456,1.29 0.634,1.817zm-18.258,3.515c-1.829,0.428 -2.91,0.589 -3.203,0.485c-0.338,-0.119 -1.637,0.116 -5.266,0.955l-4.818,1.113l2.512,-0.833c1.793,-0.592 7.898,-2.123 21.322,-5.344c1.261,-0.302 2.492,-0.598 3.686,-0.888c0.217,0.547 0.428,1.116 0.631,1.712c-14.836,3.123 -12.919,2.722 -12.484,2.419c0.227,-0.16 -0.714,-0.009 -2.38,0.381zm-143.139,37.279l0,0l-24.108,46.229l0,0l24.108,-46.229zm57.303,-109.891l0,0l-43.102,82.656l0,0l43.102,-82.656zm8.326,-15.968l0.002,0l-0.447,0.858l-0.001,0l0.446,-0.858zm89.9,75.424c-0.133,-0.315 -0.274,-0.626 -0.414,-0.938c0.111,-0.024 0.223,-0.048 0.332,-0.071c0.483,-0.101 1.014,-0.212 1.563,-0.324c0.142,0.311 0.297,0.634 0.433,0.936c-0.637,0.133 -1.275,0.265 -1.914,0.397zm-1.586,-3.505c-2.838,-6.031 -5.56,-10.199 -7.467,-13.337c-2.259,-3.278 -3.768,-5.07 -4.58,-6.254c-1.674,-2.294 -1.018,-1.493 -0.696,-1.251c0.196,0.222 -0.231,-0.895 -2.296,-2.925c-2.117,-2.216 -3.282,-3.558 -3.457,-3.989c-0.102,-0.241 -0.51,-0.766 -1.421,-1.775c-0.241,-0.264 -0.495,-0.547 -0.776,-0.853l-0.371,-0.398c-0.063,-0.05 -0.313,-0.278 -0.357,-0.31c-0.764,-0.656 -1.658,-1.428 -2.732,-2.348c0,0 -4.131,-3.658 -5.4,-4.594c0.805,0.53 2.885,2.113 2.885,2.113c1.004,0.875 3.867,2.824 7.419,6.324c1.922,2.065 4.651,4.574 7.147,7.573c1.908,2.615 4.35,5.313 6.686,8.892c0.006,0.086 0.022,0.18 0.166,0.515c0.191,0.446 0.619,1.184 1.582,2.65c1.041,1.425 2.422,3.693 4.326,7.338c0.469,0.785 0.771,1.415 1.147,2.116c0.026,0.055 0.047,0.104 0.074,0.156c-0.638,0.122 -1.265,0.241 -1.879,0.357zm-28.326,-32.852l3.709,3.218l0.919,0.791l0.423,0.366l0.104,0.106l1.785,1.901c2.262,2.478 4.762,4.893 6.283,6.855c1.44,1.92 2.672,3.561 3.592,4.79c3.352,4.438 7.268,11.208 9.275,15.241c-3.002,0.557 -5.387,0.979 -6.225,1.094c-1.439,0.203 -4.912,0.814 -7.718,1.358c-5.784,1.127 -14.604,2.767 -28.894,5.378l-10.477,-57.529c0.793,0.333 1.592,0.687 2.396,1.079c2.947,1.251 6.026,2.608 8.872,4.378c2.931,1.605 5.817,3.227 8.272,5.128c2.518,1.799 5.299,3.563 7.684,5.846zm-92.638,152.319l16.889,-77.54l0,0l-16.889,77.54l0,0zm41.836,-175.024l-10.545,71.279c0,0 0,0 0,0.002l10.545,-71.281l0,0zm-10.682,72.209l0,0l-0.07,0.477l0,0l0.07,-0.477zm-0.683,4.618l0,0l-0.063,0.423l0,0l0.063,-0.423zm7.743,-77.256l0,0l-16.068,73.773l0,0l16.068,-73.773zm-10.34,94.808l-0.35,2.369l0.35,-2.369l0,0zm-14.234,105.621l14.579,-20.807l-14.579,20.807l0,0zm62.795,-133.218c5.16,-0.968 11.713,-2.181 20.186,-3.743c6.936,-1.276 13.679,-2.534 14.988,-2.792c1.308,-0.261 3.294,-0.649 4.42,-0.868c0.76,-0.148 2.336,-0.47 4.025,-0.82c0.164,0.321 0.313,0.627 0.455,0.928c-10.282,2.12 -20.551,4.15 -29.743,5.882c-4.462,0.84 -9.249,1.754 -14.099,2.688l-0.232,-1.275zm57.635,-10.135c-0.33,0.069 -0.662,0.139 -1,0.209c-0.119,-0.288 -0.242,-0.574 -0.365,-0.862c0.344,-0.072 0.697,-0.146 1.068,-0.225c0.116,0.312 0.206,0.594 0.297,0.878zm-69.904,-67.211c1.554,0.538 3.213,1.113 4.982,1.729c1.697,0.778 3.498,1.602 5.421,2.479c7.711,3.336 16.667,8.812 26.554,17.047c2.212,1.997 4.399,3.976 6.469,5.845c1.871,2.053 3.631,3.982 5.182,5.685c3.097,3.188 5.082,6.234 5.781,7.094c1.332,1.837 3.504,4.542 4.502,6.183c1.027,1.708 3.57,5.948 5.676,9.458c1.121,2.488 2.756,5.61 3.996,8.34c-0.36,0.069 -0.723,0.14 -1.091,0.211c-4.044,-9.104 -9.065,-17.902 -15.494,-25.681c-7.196,-8.642 -15.343,-16.828 -24.021,-22.59c-8.471,-6.033 -18.789,-11.333 -29.623,-14.964l-0.273,-1.505c0.63,0.218 1.271,0.442 1.939,0.669zm-21.286,-25.413l-8.6,16.495l-0.001,0l8.602,-16.497l0,0.002l-0.001,0zm-52.422,25.484c0.74,-0.264 7.547,-2.3 15.227,-3.838c6.081,-1.288 12.525,-1.723 16.088,-1.934l-0.361,0.692c-1.541,0.078 -3.043,0.187 -4.484,0.337c-13.292,1.188 -20.09,3.504 -23.73,4.35c-3.619,0.991 -3.977,1.226 -4.044,1.023c-0.056,-0.145 0.453,-0.389 1.304,-0.63zm-61.031,94.282c0.843,-2.931 1.734,-8.339 3.259,-11.652c2.644,-7.251 3.545,-8.946 1.831,-5.501c-1.236,2.95 -1.57,3.362 -0.566,0.692c0.348,-1.008 0.704,-2.117 0.793,-2.468c0.056,-0.38 0.436,-1.303 0.902,-2.181c0.443,-0.837 1.415,-2.986 2.154,-4.787c0.673,-1.837 2.789,-5.076 4.138,-7.47c1.284,-2.451 6.808,-10.7 12.678,-17.285l0.526,-0.634l0.26,-0.314l0.125,-0.148l1.013,-0.99c0.837,-0.817 1.647,-1.612 2.419,-2.371c1.521,-1.499 2.896,-2.854 4.037,-3.979c2.13,-1.812 3.179,-2.603 2.529,-2.2c-0.82,0.537 1.213,-1.001 4.447,-3.484c4.121,-2.75 6.609,-4.182 6.503,-4.308c0,0 1.531,-1.547 5.472,-3.438c3.822,-2.085 9.809,-5.041 18.504,-7.521c2.148,-0.589 4.188,-1.151 6.119,-1.683c1.963,-0.347 3.811,-0.675 5.529,-0.98c0.243,-0.054 0.463,-0.084 0.701,-0.132l-43.707,83.881c-2.291,0.462 -4.354,0.859 -6.426,1.242c-10.12,1.865 -11.184,2.098 -10.58,2.31c0.286,0.103 0.03,0.264 -0.705,0.45c-2.079,0.518 6.281,-0.92 10.271,-1.77c2.141,-0.456 3.91,-0.762 3.932,-0.679c0.02,0.084 -0.27,0.223 -0.641,0.31c-0.369,0.086 -0.578,0.228 -0.459,0.314c0.279,0.209 -5.721,1.866 -8.85,2.448c-1.312,0.241 -6.705,1.467 -11.98,2.722c-5.281,1.255 -9.612,2.227 -9.625,2.162c-0.016,-0.064 0.479,-0.342 1.1,-0.615c1.068,-0.469 1.063,-0.482 -0.094,-0.215c-0.675,0.154 -3.119,0.897 -5.439,1.653c-0.742,0.243 -1.367,0.439 -1.938,0.614c0.05,-1.232 0.109,-2.235 0.306,-2.963c0.41,-1.953 0.954,-6.029 1.462,-9.03zm4.93,55.031c-1.201,-2.972 -2.418,-6.108 -3.176,-9.374c-0.113,-0.386 -0.208,-0.766 -0.319,-1.151c-0.167,-0.805 -0.364,-1.66 -0.595,-2.493c-0.489,-1.721 -0.907,-3.426 -0.848,-3.799c-0.069,-0.477 -0.277,-1.866 -0.609,-4.099c-0.07,-0.373 -0.141,-0.798 -0.211,-1.21c0.326,-0.04 0.662,-0.056 1.064,-0.041c0.76,0.028 2.145,-0.155 3.418,-0.454c1.181,-0.276 2.346,-0.498 2.596,-0.495c0.245,0.003 4.18,-0.847 8.739,-1.889c5.66,-1.292 9.034,-1.981 10.718,-2.188l-17.777,34.116c-1.065,-2.076 -2.127,-4.387 -3,-6.923zm-1.977,37.105l0,0l-12.645,24.246l12.645,-24.246zm71.764,22.277c0,0 -2.178,0.01 -6.303,-1.435c-4.176,-1.232 -10.5,-3.371 -18.402,-7.77c-1.935,-1.1 -3.777,-2.148 -5.516,-3.136c-0.279,-0.196 -0.541,-0.378 -0.816,-0.571l24.423,-8.246l6.956,21.168c-0.203,-0.03 -0.339,-0.042 -0.342,-0.01zm28.487,2.426l-0.82,0.077l-0.407,0.038l-0.193,0.02l-1.416,-0.02c-1.17,-0.013 -2.303,-0.022 -3.387,-0.035c-2.136,-0.016 -4.066,-0.025 -5.666,-0.038c-2.787,-0.226 -4.09,-0.409 -3.344,-0.235c0.383,0.081 0.188,0.069 -0.418,-0.003l12.988,-18.533l22.291,15.889c-3.858,0.931 -12.076,2.407 -19.628,2.84zm100.685,-110.022c-0.338,0.025 -1.324,-2.97 -1.003,-3.06c0.109,-0.032 0.282,0.418 0.386,1.001c0.246,1.563 0.508,0.132 0.182,-2.246c-0.205,-1.119 -0.487,-2.017 -0.627,-1.994c-0.137,0.022 -0.166,0.512 -0.06,1.081c0.393,2.13 -0.13,0.994 -0.693,-1.496c-0.318,-1.422 -0.646,-2.567 -0.726,-2.554c-0.078,0.019 0.02,1.203 0.219,2.634c0.229,1.608 0.253,2.619 0.059,2.645c-0.375,0.055 -0.48,2.642 -0.076,7.029c0.033,0.937 0.407,3.438 0.328,5.147c-0.06,2.583 -0.131,5.555 -0.194,8.296c-0.792,8.474 -1.085,8.772 -1.25,8.29c-0.198,-0.508 -0.345,-0.02 -0.722,2.57c-0.827,3.693 -1.104,4.916 -0.373,2.847c0.369,-1.097 0.379,-0.771 0.035,1.493c-0.416,2.744 -0.517,3.092 -1.74,5.919c-1.412,2.603 -1.844,3.507 -3.755,9.014c-1.44,3.269 -3.011,6.679 -3.319,7.653c-0.428,1.332 -0.859,2.146 -1.802,3.201c-0.718,0.849 -1.859,2.566 -2.81,4.246c-0.874,1.563 -1.783,3.063 -2.09,3.284c-0.286,0.387 -1.125,1.516 -2.467,3.333c-1.358,1.969 -3.236,4.571 -5.595,7.1c-2.712,3.346 -5.179,5.714 -7.177,7.467c-0.708,0.634 -1.307,1.191 -1.863,1.708l-17.001,-93.346c4.724,-1.026 10.263,-2.242 15.022,-3.298c8.178,-1.813 18.373,-4.053 22.657,-4.967c2.747,-0.59 6.103,-1.35 8.889,-2.007c1.962,6.041 3.91,15.364 4.272,16.789c0.12,0.418 0.019,-0.808 -0.39,-2.692c-0.37,-1.892 -0.638,-3.758 -0.602,-4.15c-0.002,-0.447 -0.184,-2.939 -1.437,-6.749c-0.346,-1.187 -0.664,-2.34 -0.961,-3.408c0.892,-0.212 1.687,-0.407 2.371,-0.579c0.018,0.092 0.037,0.177 0.054,0.281c0.249,1.831 0.328,2.085 1.259,4.144c0.439,1.033 0.872,2.406 1.279,3.886c0.416,2.236 0.88,4.69 1.369,7.3c0.215,1.28 0.331,2.615 0.438,3.963c-0.028,0.07 -0.035,0.222 -0.086,0.225z" fill="#010202"/>
    <path id="svg_11" d="m203.490891,10.043l10.529,57.821c2.778,0.904 5.795,1.998 9.162,3.224c24.777,10.838 36.366,23.085 43.393,30.642c3.182,3.155 6.891,8.383 8.348,10.48c0.457,0.63 1.393,1.904 2.494,3.58c0.233,0.055 0.916,0.763 2.157,2.224c1.45,1.791 2.911,3.59 4.04,4.986c1.213,1.676 2.072,3.242 2.484,3.982c0.312,0.602 0.55,1.479 0.533,1.955c-0.112,0.947 1.086,2.944 2.731,6.082c10.927,-2.088 17.56,-3.283 21.701,-3.923l5.145,-0.795l-4.233,0.888c-2.632,0.551 -4.223,0.952 -4.198,1.056c0.006,0.025 0.075,0.038 0.201,0.038c1.275,0 8.399,-1.283 14.957,-2.715c3.833,-0.836 7.587,-1.599 8.346,-1.695c0.184,-0.022 0.306,-0.033 0.37,-0.033c0.264,0 -0.537,0.204 -2.481,0.635c-2.286,0.505 -3.264,0.753 -2.938,0.753c0.222,0 1.074,-0.119 2.552,-0.357c0.983,-0.159 1.842,-0.252 2.227,-0.252c0.13,0 0.206,0.011 0.212,0.033c0.026,0.091 0.383,0.184 0.792,0.209c0.547,0.032 0.466,0.109 -0.286,0.286c-0.422,0.101 -0.852,0.158 -1.105,0.158c-0.09,0 -0.159,-0.008 -0.198,-0.022c-0.014,-0.007 -0.046,-0.01 -0.091,-0.01c-0.367,0 -1.665,0.202 -3.104,0.495c-1.611,0.322 -6.27,1.171 -10.349,1.882c-7.942,1.387 -13.334,2.555 -13.68,2.96c-0.159,0.187 -0.817,0.338 -2.62,0.608c-1.326,0.199 -5.125,0.99 -8.441,1.763c-0.512,0.119 -1.047,0.241 -1.59,0.363c0.017,0.035 0.033,0.064 0.051,0.1c0.157,0.296 0.294,0.551 0.428,0.798c3.148,-0.644 5.377,-1.081 5.734,-1.116c0.609,-0.064 2.638,-0.415 4.506,-0.785c1.871,-0.366 3.879,-0.672 4.463,-0.682c0.766,-0.013 4.562,-0.805 13.556,-2.834c6.871,-1.551 15.551,-3.417 19.292,-4.146c3.74,-0.73 9.834,-2.033 13.54,-2.896c3.709,-0.862 7.203,-1.603 7.763,-1.644c0.027,-0.002 0.05,-0.004 0.065,-0.004c0.396,0 -1.703,0.52 -5.778,1.426c-8.149,1.814 -15.267,3.635 -14.867,3.809c0.041,0.018 0.132,0.025 0.262,0.025c0.358,0 1.012,-0.064 1.683,-0.174c0.743,-0.12 1.146,-0.185 1.221,-0.185c0.09,0 -0.273,0.09 -1.073,0.284c-1.564,0.387 -1.9,0.805 -0.711,0.805c0.06,0 0.124,-0.002 0.19,-0.003c0.482,-0.013 3.44,-0.614 6.568,-1.335c3.621,-0.834 5.771,-1.281 5.979,-1.281c0.177,0 -1.036,0.32 -3.92,1.001c-2.379,0.56 -5.527,1.357 -6.994,1.772c-2.615,0.736 -2.66,0.763 -2.308,1.342l0.36,0.592l-3.071,0.607c-2.31,0.457 -3.314,0.734 -4.069,1.12c-0.724,0.366 -1.661,0.634 -3.364,0.945c-1.499,0.28 -2.349,0.505 -2.323,0.618c0.012,0.042 0.114,0.064 0.315,0.064c0.832,0 3.321,-0.37 7.613,-1.13c1.596,-0.281 2.496,-0.424 2.663,-0.424c0.109,0 -0.083,0.06 -0.589,0.177c-1.111,0.264 -3.865,0.808 -6.116,1.209c-2.857,0.509 -4.35,0.843 -4.943,1.11c-0.938,0.418 -5.748,1.576 -22.337,5.366c-4.261,0.975 -7.485,1.714 -9.95,2.285c0.109,0.251 0.235,0.531 0.38,0.854c4.204,-1.027 8.419,-2.074 10.515,-2.615c4.788,-1.23 8.948,-2.113 9.878,-2.113c0.12,0 0.185,0.015 0.192,0.045c0.022,0.094 -3.322,0.943 -7.939,2.021c-4.689,1.097 -9.444,2.307 -12.43,3.138c0.303,0.673 0.679,1.504 1.148,2.558c1.464,-0.356 2.418,-0.55 2.747,-0.55c0.029,0 0.054,0.002 0.072,0.005c0.02,0.003 0.046,0.005 0.074,0.005c0.376,0 1.524,-0.226 2.68,-0.529c0.967,-0.254 1.666,-0.415 1.808,-0.415c0.039,0 0.034,0.015 -0.025,0.042c-0.619,0.289 -3.766,1.271 -7.013,2.215c0.185,0.416 0.378,0.857 0.59,1.34c1.876,3.748 3.536,8.949 4.134,11.381c0.621,2.42 1.635,5.415 1.874,6.701c0.467,1.937 0.768,4.063 0.649,4.063c-0.038,0 -0.132,-0.263 -0.286,-0.885c-0.174,-0.691 -0.291,-1.014 -0.355,-1.014c-0.162,0 0.018,2.054 0.502,5.411c0.171,1.28 0.293,2.197 0.37,2.786c0.042,0.383 0.067,0.646 0.087,0.836c0.008,0.112 0.015,0.193 0.021,0.28c0,0.225 0,0.443 0,0.685l-0.008,0.074c-0.008,0.066 -0.021,0.1 -0.037,0.1c-0.003,0 -0.01,-0.003 -0.015,-0.01l-0.035,-0.08l-0.02,-0.074l-0.013,-0.042l-0.006,-0.588l-0.005,-0.014l-0.007,-0.025c-0.098,-0.393 -0.233,-0.93 -0.405,-1.621c-0.256,-1.106 -0.677,-2.152 -0.935,-2.332c-0.076,-0.052 -0.137,-0.081 -0.188,-0.081c-0.215,0 -0.193,0.554 0.002,2.304c0.037,0.402 0.074,0.778 0.111,1.174l0.025,0.318l0.026,0.83l-0.022,0.608c-0.042,0.659 -0.09,1.377 -0.142,2.178c-0.174,1.666 -0.128,2.976 0.211,6.309l0.212,2.097c0.012,1.182 0.021,2.358 0.021,2.358l-0.605,2.05c-0.54,1.791 -0.672,2.792 -1.273,8.28c-0.564,2.953 -1.521,7.952 -2.165,11.304c-1.048,4.305 -1.54,5.443 -1.938,6.18c-0.188,0.317 -0.357,0.489 -0.457,0.489c-0.058,0 -0.093,-0.057 -0.098,-0.171c-0.005,-0.06 -0.018,-0.087 -0.04,-0.087c-0.245,0 -1.503,3.474 -2.405,6.147c-0.455,1.162 -0.91,2.758 -1.01,3.552c-0.097,0.795 -0.541,2.246 -0.979,3.224c-0.494,0.949 -1.293,3.52 -2.328,5.443l-1.719,3.593l0.854,-2.242c0.41,-1.089 0.571,-1.636 0.479,-1.636c-0.203,0 -1.621,2.614 -4.313,7.877c-2.135,3.779 -4.763,7.537 -5.446,8.569c-0.612,0.859 -0.925,1.292 -0.96,1.292s0.215,-0.453 0.732,-1.369c0.588,-1.045 1.022,-1.933 0.968,-1.972c0,0 -1.168,1.603 -3.072,4.156c-2.108,2.391 -4.884,5.813 -8.171,9.352c-6.132,6.397 -13.269,11.859 -15.91,13.838l0.244,1.327c0.514,-0.357 1.01,-0.713 1.473,-1.068c2.64,-1.941 4.623,-3.386 4.701,-3.386c0.023,0 -0.121,0.126 -0.465,0.403c-0.912,0.738 -1.295,1.138 -1.095,1.138c0.034,0 0.083,-0.012 0.149,-0.034c0.086,-0.03 0.152,-0.048 0.193,-0.048c0.185,0 -0.221,0.391 -1.977,1.757c-0.672,0.57 -1.617,1.273 -2.825,2.099l6.489,35.626l-7.554,-5.327c-0.021,-0.013 -0.047,-0.01 -0.065,-0.022l-23.882,-17.021c-1.383,0.552 -2.819,1.098 -4.358,1.635c-7.069,2.618 -16.016,5.066 -28.42,6.724l-6.778,0.501l-3.358,0.232l-0.834,0.058l-0.414,0.029l-0.951,-0.01l-1.5,-0.045c-4.083,-0.2 -7.553,-0.068 -11.449,-0.524c-3.899,-0.509 -7.38,-0.966 -10.211,-1.335c-2.729,-0.499 -4.674,-1.068 -5.856,-1.329c-4.679,-0.968 -14.622,-3.918 -21.774,-7.148c-7.292,-2.953 -13.316,-6.816 -14.057,-7.273c-0.372,-0.26 -0.443,-0.373 -0.289,-0.373c0.639,0 5.103,1.936 7.967,3.469c0.382,0.17 0.57,0.254 0.589,0.254c0.063,0 -1.658,-0.884 -4.397,-2.59c-0.672,-0.402 -1.216,-0.733 -1.791,-1.084c-3.663,-1.384 -7.673,-3.442 -9.574,-4.594c-2.148,-1.268 -4.984,-2.67 -6.064,-3.41c-1.754,-1.076 -3.528,-2.418 -3.318,-2.418c0.064,0 0.316,0.126 0.814,0.427c0.537,0.321 0.843,0.473 0.939,0.473c0.241,0 -0.859,-0.965 -2.92,-2.543l-31.759,10.724l-0.022,0.003l-11.418,3.828l21.344,-40.964c-1.387,-2.045 -2.898,-4.272 -4.063,-5.99c-2.303,-3.783 -2.758,-4.938 -2.998,-5.739c-0.108,-0.429 -0.089,-0.692 0.031,-0.692c0.037,0 0.082,0.023 0.137,0.075c0.033,0.027 0.055,0.04 0.072,0.04c0.273,0 -1.343,-3.458 -2.629,-6.056c-0.5,-1.146 -1.309,-2.593 -1.797,-3.227c-0.492,-0.628 -1.207,-1.969 -1.586,-2.97c-0.324,-1.02 -1.576,-3.403 -2.203,-5.497l-1.326,-3.755l0.981,2.188c0.452,1.001 0.719,1.503 0.802,1.503c0.201,0 -0.64,-2.852 -2.507,-8.625c-0.743,-2.675 -1.335,-5.479 -1.732,-7.473c-0.271,0.042 -0.466,0.062 -0.599,0.062c-0.266,0 -0.286,-0.081 -0.156,-0.242c0.102,-0.122 0.121,-0.197 -0.094,-0.197c-0.436,0 -1.844,0.311 -5.525,1.153c-3.273,0.746 -7.104,1.647 -8.51,1.997c-1.741,0.438 -3.057,0.66 -3.842,0.66c-0.499,0 -0.781,-0.089 -0.825,-0.271c-0.021,-0.098 -0.214,-0.147 -0.542,-0.147c-0.306,0 -0.727,0.043 -1.237,0.128c-0.665,0.114 -1.256,0.179 -1.549,0.179c-0.119,0 -0.19,-0.01 -0.194,-0.033c-0.021,-0.081 0.714,-0.37 1.626,-0.644c1.238,-0.37 1.931,-0.74 1.551,-0.74c-0.112,0 -0.319,0.032 -0.632,0.106c-0.131,0.028 -0.258,0.043 -0.369,0.043c-0.199,0 -0.344,-0.047 -0.365,-0.137c-0.031,-0.135 0.531,-0.386 1.252,-0.553c0.686,-0.161 1.253,-0.238 1.581,-0.238c0.399,0 0.444,0.112 -0.085,0.325c-0.363,0.145 -0.631,0.351 -0.596,0.456c0.012,0.036 0.047,0.05 0.097,0.05c0.394,0 1.8,-0.971 1.73,-1.266c-0.016,-0.069 -0.134,-0.102 -0.333,-0.102c-1.415,0 -6.931,1.6 -9.504,2.836c-1.34,0.646 -1.518,0.692 -2.738,0.705c-1.631,0.016 -2.699,0.261 -3.979,0.913c-0.559,0.283 -1.054,0.445 -1.363,0.445c-0.038,0 -0.072,-0.003 -0.104,-0.008c-0.012,-0.002 -0.027,-0.003 -0.045,-0.003c-0.449,0 -2.76,0.577 -6.979,1.737c-5.059,1.391 -6.655,1.778 -7.336,1.778c-0.016,0 -0.032,0 -0.049,0c-0.625,-0.016 -0.625,-0.087 -0.001,-0.292c0.454,-0.151 0.788,-0.428 0.745,-0.615c-0.044,-0.187 1.079,-0.961 2.494,-1.718c1.924,-1.026 2.384,-1.386 1.812,-1.418c-0.573,-0.036 -0.364,-0.196 0.82,-0.644c0.875,-0.332 1.994,-0.939 2.491,-1.354c0.563,-0.473 0.733,-0.646 0.447,-0.646c-0.135,0 -0.37,0.039 -0.713,0.102c-0.639,0.116 -1.467,0.209 -1.84,0.209c-0.371,0 -1.354,0.158 -2.188,0.354c-0.738,0.172 -1.51,0.292 -1.842,0.292c-0.041,0 -0.077,-0.003 -0.103,-0.006c-0.597,-0.09 3.312,-1.521 4.763,-1.747c0.641,-0.1 1.604,-0.354 2.143,-0.572c0.84,-0.338 0.833,-0.415 -0.051,-0.547c-0.957,-0.145 -0.844,-0.238 1.697,-1.429c1.561,-0.733 2.365,-1.221 2.016,-1.221c-0.013,0 -0.025,0 -0.04,0.002c-0.057,0.005 -0.109,0.006 -0.154,0.006c-0.378,0 -0.358,-0.155 0.048,-0.515c0.351,-0.312 0.39,-0.775 0.082,-1.029c-0.231,-0.189 -0.405,-0.294 -0.853,-0.294c-0.579,0 -1.614,0.177 -3.828,0.577c-2.06,0.37 -3.757,0.604 -4.36,0.604c-0.1,0 -0.169,-0.006 -0.206,-0.019c-0.079,-0.027 -0.278,-0.042 -0.558,-0.042c-0.596,0 -1.557,0.06 -2.553,0.164c-0.838,0.087 -1.437,0.132 -1.824,0.132c-0.48,0 -0.633,-0.069 -0.5,-0.206c0.17,-0.177 -0.104,-0.278 -0.711,-0.278c-0.131,0 -0.277,0.005 -0.439,0.015c-0.278,0.016 -0.516,0.024 -0.714,0.024c-1.222,0 -0.938,-0.325 0.876,-1.205c2.103,-1.017 5.023,-2.2 5.973,-2.423c0.109,-0.025 0.233,-0.037 0.359,-0.037c0.31,0 0.643,0.071 0.844,0.195c0.166,0.1 0.402,0.149 0.706,0.149c0.933,0 2.498,-0.47 4.559,-1.378c1.777,-0.782 2.038,-1.001 1.681,-1.396c-0.289,-0.326 -0.355,-0.427 0.04,-0.427c0.153,0 0.375,0.015 0.679,0.037c0.168,0.013 0.313,0.021 0.452,0.021c0.78,0 1.366,-0.288 4.571,-1.948c2.137,-1.104 4.954,-2.441 6.26,-2.969c1.31,-0.531 2.918,-1.258 3.581,-1.618c0.886,-0.483 1.87,-0.85 2.103,-0.85c0.12,0 0.031,0.102 -0.391,0.344c-0.523,0.298 -0.623,0.441 -0.379,0.441c0.342,0 1.352,-0.28 2.806,-0.805c1.271,-0.457 2.001,-0.685 2.2,-0.685c0.191,0 -0.109,0.212 -0.896,0.637c-0.565,0.306 -1.074,0.771 -1.125,1.035c-0.041,0.215 -0.006,0.319 0.207,0.319c0.191,0 0.527,-0.086 1.086,-0.255c0.762,-0.231 1.965,-0.479 2.68,-0.547c1.029,-0.103 1.791,-0.356 3.68,-1.222l2.385,-1.091l1.172,0.1c0.197,0.018 0.378,0.027 0.56,0.027c0.766,0 1.567,-0.184 3.885,-0.813c0.562,-0.152 1.222,-0.339 1.911,-0.537c0.01,-8.991 1.275,-17.6 1.599,-19.777c0.624,-3.03 1.374,-6.672 2.11,-10.24c0.607,-3.29 1.5,-5.775 1.305,-5.775c-0.006,0 -0.012,0.002 -0.018,0.005c-0.02,0.016 -0.037,0.024 -0.051,0.024c-0.098,0 -0.047,-0.399 0.137,-0.971c0.206,-0.649 0.311,-1.203 0.23,-1.229c0,0 -1.244,2.985 -2.299,6.774c-0.727,3.584 -2.374,9.015 -2.928,13.229c-0.5,3.279 -0.883,5.722 -0.931,5.722c-0.013,0 0,-0.193 0.044,-0.616c0.11,-1.046 0.113,-1.601 0.011,-1.601c-0.03,0 -0.071,0.052 -0.12,0.152c-0.057,0.116 -0.104,0.187 -0.136,0.187c-0.099,0 -0.065,-0.645 0.187,-2.653c0.216,-2.693 1.277,-7.763 3.734,-16.716c1.894,-5.639 3.726,-11.246 7.02,-18.063c3.146,-6.853 7.74,-14.907 15.339,-24.851l4.44,-5.147l2.211,-2.541l0.548,-0.628l0.275,-0.315l0.679,-0.665l1.092,-1.03c3.027,-2.747 5.389,-5.292 8.465,-7.724c3.119,-2.399 5.9,-4.536 8.164,-6.276c2.28,-1.579 4.061,-2.554 5.08,-3.204c3.994,-2.621 13.113,-7.569 20.452,-10.342c7.245,-3.066 14.238,-4.594 15.086,-4.797c0.169,-0.029 0.293,-0.043 0.375,-0.043c1.032,0 -4.419,2.205 -7.997,3.286c-0.434,0.165 -0.623,0.237 -0.594,0.237c0.087,0 1.907,-0.574 4.941,-1.28c4.221,-1.063 6.865,-1.656 7.381,-1.656c0.06,0 0.09,0.006 0.094,0.022c0,0 1.387,-0.106 3.691,-0.44c2.314,-0.271 5.531,-0.972 9.326,-1.268c2.602,-0.221 5.47,-0.393 8.443,-0.487l27.588,-52.94m-16.791,53.008l0,0l8.602,-16.494l0,-0.003l-8.602,16.497m-2.075,3.978l0,0l0.448,-0.858l-0.002,0l-0.446,0.858m-42.937,5.709c0.258,0 1.088,-0.313 3.93,-1.091c3.641,-0.846 10.438,-3.162 23.73,-4.35c1.441,-0.15 2.943,-0.259 4.484,-0.337l0.361,-0.692c-3.563,0.211 -10.007,0.646 -16.088,1.934c-7.68,1.538 -14.486,3.574 -15.227,3.838c-0.852,0.241 -1.36,0.485 -1.306,0.631c0.016,0.043 0.046,0.067 0.116,0.067m142.37,63.3c0.368,-0.071 0.73,-0.142 1.091,-0.211c-1.24,-2.729 -2.875,-5.852 -3.996,-8.34c-2.105,-3.51 -4.648,-7.75 -5.676,-9.458c-0.998,-1.641 -3.17,-4.346 -4.502,-6.183c-0.699,-0.859 -2.685,-3.905 -5.781,-7.094c-1.551,-1.702 -3.311,-3.632 -5.182,-5.685c-2.069,-1.869 -4.257,-3.848 -6.469,-5.845c-9.887,-8.235 -18.843,-13.711 -26.554,-17.047c-1.923,-0.878 -3.724,-1.701 -5.421,-2.479c-1.77,-0.615 -3.429,-1.19 -4.982,-1.729c-0.668,-0.227 -1.309,-0.45 -1.939,-0.67l0.273,1.505c10.834,3.631 21.152,8.931 29.623,14.964c8.678,5.762 16.824,13.948 24.021,22.59c6.429,7.78 11.45,16.577 15.494,25.682m-109.491,19.84l16.068,-73.773l-16.068,73.773m-40.924,8.918l43.102,-82.656l-43.102,82.656m51.428,-20.167l-1.358,9.184c0,0 0,0 0,0.002l1.358,-9.186l9.187,-62.096l-0.001,0l-9.186,62.096m-19.85,-61.143c-0.238,0.048 -0.458,0.078 -0.701,0.132c-1.719,0.306 -3.566,0.634 -5.529,0.98c-1.931,0.531 -3.971,1.094 -6.119,1.683c-8.695,2.48 -14.682,5.437 -18.504,7.521c-3.94,1.892 -5.472,3.438 -5.472,3.438c0.106,0.126 -2.382,1.558 -6.503,4.308c-2.801,2.15 -4.7,3.592 -4.628,3.592c0.011,0 0.069,-0.035 0.181,-0.107c0.11,-0.069 0.172,-0.104 0.188,-0.104c0.072,0 -0.95,0.801 -2.717,2.304c-1.141,1.126 -2.516,2.48 -4.037,3.979c-0.771,0.759 -1.582,1.554 -2.419,2.371l-1.013,0.99l-0.125,0.148l-0.26,0.314l-0.526,0.634c-5.87,6.585 -11.394,14.834 -12.678,17.285c-1.349,2.394 -3.465,5.633 -4.138,7.47c-0.739,1.801 -1.711,3.95 -2.154,4.787c-0.467,0.878 -0.847,1.801 -0.902,2.181c-0.089,0.351 -0.445,1.46 -0.793,2.468c-0.453,1.204 -0.633,1.781 -0.581,1.781c0.062,0 0.47,-0.854 1.147,-2.474c0.566,-1.14 0.848,-1.716 0.873,-1.716c0.055,0 -0.934,2.364 -2.704,7.217c-1.524,3.313 -2.416,8.722 -3.259,11.652c-0.508,3.001 -1.052,7.077 -1.462,9.029c-0.196,0.728 -0.256,1.73 -0.306,2.963c0.57,-0.175 1.195,-0.371 1.938,-0.614c2.32,-0.756 4.765,-1.499 5.439,-1.653c0.486,-0.113 0.77,-0.176 0.855,-0.176c0.115,0 -0.143,0.119 -0.762,0.391c-0.621,0.273 -1.115,0.551 -1.1,0.615c0,0.001 0.005,0.003 0.014,0.003c0.272,0 4.496,-0.95 9.611,-2.165c5.275,-1.255 10.669,-2.48 11.98,-2.722c3.129,-0.582 9.129,-2.239 8.85,-2.448c-0.119,-0.087 0.09,-0.229 0.459,-0.314c0.371,-0.087 0.66,-0.226 0.641,-0.31c-0.002,-0.01 -0.027,-0.015 -0.068,-0.015c-0.352,0 -1.961,0.288 -3.863,0.693c-3.406,0.726 -9.998,1.879 -10.559,1.879c-0.097,0 -0.017,-0.033 0.287,-0.109c0.735,-0.187 0.991,-0.348 0.705,-0.45c-0.604,-0.212 0.46,-0.444 10.58,-2.31c2.072,-0.383 4.135,-0.78 6.426,-1.242l43.708,-83.879m63.092,62.852c14.29,-2.611 23.109,-4.251 28.894,-5.378c2.806,-0.544 6.278,-1.155 7.718,-1.358c0.838,-0.115 3.223,-0.537 6.225,-1.094c-2.008,-4.033 -5.924,-10.804 -9.275,-15.241c-0.92,-1.229 -2.151,-2.87 -3.592,-4.79c-1.521,-1.963 -4.021,-4.378 -6.283,-6.855l-1.785,-1.901l-0.104,-0.106l-0.423,-0.366l-0.919,-0.791l-3.709,-3.218c-2.385,-2.283 -5.166,-4.047 -7.682,-5.845c-2.455,-1.901 -5.342,-3.522 -8.272,-5.128c-2.846,-1.77 -5.925,-3.127 -8.872,-4.378c-0.805,-0.393 -1.604,-0.746 -2.396,-1.079l10.475,57.528m32.364,-29.063c-0.007,0 -0.019,-0.009 -0.035,-0.027c-0.146,-0.109 -0.358,-0.333 -0.394,-0.333c-0.045,0 0.174,0.328 1.09,1.584c0.813,1.184 2.321,2.976 4.58,6.254c1.907,3.138 4.629,7.306 7.467,13.337c0.613,-0.115 1.24,-0.234 1.878,-0.355c-0.027,-0.053 -0.048,-0.102 -0.074,-0.156c-0.376,-0.701 -0.679,-1.331 -1.147,-2.116c-1.904,-3.645 -3.285,-5.913 -4.326,-7.338c-0.963,-1.467 -1.391,-2.204 -1.582,-2.65c-0.144,-0.335 -0.16,-0.429 -0.166,-0.515c-2.336,-3.578 -4.777,-6.276 -6.686,-8.892c-2.496,-2.999 -5.226,-5.508 -7.147,-7.573c-3.552,-3.5 -6.415,-5.449 -7.419,-6.324c0,0 -2.08,-1.583 -2.885,-2.113c1.27,0.936 5.4,4.594 5.4,4.594c1.074,0.92 1.969,1.691 2.732,2.348c0.045,0.031 0.295,0.26 0.357,0.31l0.371,0.398c0.281,0.306 0.535,0.589 0.776,0.853c0.911,1.01 1.319,1.534 1.421,1.775c0.175,0.432 1.34,1.773 3.457,3.989c1.892,1.857 2.409,2.95 2.332,2.95m24.814,22.114c0.338,-0.07 0.67,-0.14 1,-0.209c-0.091,-0.284 -0.181,-0.566 -0.297,-0.878c-0.371,0.078 -0.725,0.152 -1.068,0.225c0.123,0.288 0.246,0.574 0.365,0.862m-10.52,2.206c0.639,-0.132 1.276,-0.264 1.913,-0.397c-0.136,-0.302 -0.291,-0.625 -0.433,-0.936c-0.549,0.112 -1.079,0.224 -1.563,0.324c-0.109,0.023 -0.221,0.047 -0.332,0.071c0.141,0.312 0.282,0.622 0.415,0.938m-45.883,8.995c4.85,-0.935 9.637,-1.849 14.099,-2.688c9.192,-1.731 19.461,-3.762 29.743,-5.882c-0.143,-0.301 -0.291,-0.606 -0.455,-0.928c-1.689,0.351 -3.266,0.672 -4.025,0.82c-1.126,0.219 -3.112,0.607 -4.42,0.868c-1.31,0.258 -8.053,1.516 -14.988,2.792c-8.473,1.563 -15.025,2.775 -20.186,3.743l0.232,1.275m49.364,1.149c0.759,-0.159 1.545,-0.324 2.388,-0.503c-0.179,-0.527 -0.388,-1.134 -0.634,-1.816c-0.736,0.179 -1.5,0.363 -2.279,0.552c0.156,0.487 0.331,1.083 0.525,1.767m-29.158,5.566l4.818,-1.113c3.051,-0.706 4.455,-0.984 5.026,-0.984c0.108,0 0.187,0.01 0.239,0.029c0.057,0.021 0.144,0.03 0.261,0.03c0.481,0 1.469,-0.172 2.942,-0.516c1.223,-0.287 2.055,-0.442 2.32,-0.442c0.098,0 0.119,0.019 0.059,0.063c-0.139,0.097 -0.427,0.202 -0.278,0.202c0.315,0 2.64,-0.49 12.763,-2.621c-0.203,-0.596 -0.414,-1.165 -0.631,-1.712c-1.193,0.29 -2.425,0.586 -3.686,0.888c-13.424,3.221 -19.529,4.752 -21.322,5.344l-2.511,0.832m33.187,13.696c-0.01,0 -0.021,-0.027 -0.037,-0.082c-0.362,-1.425 -2.311,-10.748 -4.272,-16.789c-2.786,0.657 -6.142,1.417 -8.889,2.007c-4.284,0.914 -14.479,3.153 -22.657,4.967c-4.76,1.056 -10.299,2.271 -15.022,3.298l17.001,93.346c0.557,-0.517 1.155,-1.074 1.863,-1.708c1.998,-1.753 4.465,-4.121 7.177,-7.467c2.358,-2.528 4.236,-5.131 5.595,-7.1c1.342,-1.817 2.181,-2.946 2.467,-3.333c0.307,-0.222 1.216,-1.721 2.09,-3.284c0.95,-1.68 2.092,-3.397 2.81,-4.246c0.942,-1.056 1.374,-1.869 1.802,-3.201c0.309,-0.975 1.879,-4.385 3.319,-7.653c1.911,-5.507 2.343,-6.411 3.755,-9.014c1.224,-2.827 1.324,-3.175 1.74,-5.919c0.22,-1.446 0.294,-2.101 0.225,-2.101c-0.04,0 -0.127,0.211 -0.26,0.607c-0.24,0.678 -0.372,1.003 -0.41,1.003c-0.081,0 0.228,-1.366 0.783,-3.85c0.292,-2.002 0.445,-2.749 0.594,-2.749c0.041,0 0.083,0.063 0.128,0.179c0.028,0.082 0.062,0.142 0.099,0.142c0.182,0 0.495,-1.405 1.151,-8.432c0.063,-2.741 0.135,-5.713 0.194,-8.296c0.079,-1.709 -0.295,-4.211 -0.328,-5.147c-0.404,-4.388 -0.299,-6.975 0.076,-7.029c0.194,-0.025 0.17,-1.036 -0.059,-2.645c-0.199,-1.431 -0.297,-2.615 -0.219,-2.634c0.002,0 0.002,0 0.002,0c0.084,0 0.406,1.14 0.724,2.554c0.356,1.581 0.698,2.615 0.8,2.615c0.059,0 0.037,-0.343 -0.106,-1.119c-0.106,-0.569 -0.077,-1.059 0.06,-1.081c0.002,0 0.003,0 0.006,0c0.143,0 0.418,0.89 0.621,1.994c0.232,1.689 0.168,2.9 0.023,2.9c-0.063,0 -0.133,-0.201 -0.205,-0.654c-0.1,-0.563 -0.266,-1.002 -0.375,-1.002c-0.003,0 -0.006,0 -0.011,0.001c-0.32,0.09 0.657,3.06 0.999,3.06c0.002,0 0.003,0 0.004,0c0.051,-0.003 0.059,-0.154 0.088,-0.226c-0.106,-1.348 -0.223,-2.683 -0.438,-3.963c-0.489,-2.609 -0.953,-5.063 -1.369,-7.3c-0.407,-1.479 -0.84,-2.853 -1.279,-3.886c-0.931,-2.059 -1.01,-2.313 -1.259,-4.144c-0.017,-0.104 -0.036,-0.189 -0.054,-0.281c-0.685,0.172 -1.479,0.367 -2.371,0.579c0.297,1.068 0.615,2.222 0.961,3.408c1.253,3.81 1.435,6.302 1.437,6.749c-0.036,0.393 0.231,2.259 0.602,4.15c0.353,1.637 0.475,2.776 0.424,2.776m-98.977,-15.782l0.071,-0.477l-0.001,0l-0.07,0.477m-0.675,4.564l0.063,-0.423l-0.063,0.423m-2.883,19.498l0.35,-2.369l-0.35,2.369m-27.525,78.277l16.889,-77.541l-16.889,77.541l0,0m-57.087,-19.299l24.108,-46.229l-24.108,46.229m12.221,-44.098c-1.684,0.206 -5.058,0.896 -10.718,2.188c-4.552,1.041 -8.479,1.889 -8.737,1.889c0,0 0,0 -0.002,0c-0.001,0 -0.004,0 -0.004,0c-0.264,0 -1.419,0.22 -2.592,0.495c-1.186,0.278 -2.467,0.457 -3.25,0.457c-0.059,0 -0.116,-0.002 -0.168,-0.003c-0.096,-0.004 -0.191,-0.005 -0.283,-0.005c-0.281,0 -0.533,0.016 -0.781,0.046c0.07,0.412 0.141,0.837 0.211,1.21c0.332,2.232 0.54,3.622 0.609,4.099c-0.06,0.373 0.358,2.078 0.848,3.799c0.23,0.833 0.428,1.688 0.595,2.493c0.111,0.386 0.206,0.766 0.319,1.151c0.758,3.266 1.975,6.402 3.176,9.374c0.873,2.535 1.936,4.847 3,6.924l17.777,-34.117m-35.398,88.543l12.645,-24.246l-12.645,24.246m84.406,-1.969l0.002,0c0.002,-0.013 0.025,-0.02 0.067,-0.02c0.06,0 0.155,0.012 0.274,0.03l-6.956,-21.168l-24.423,8.246c0.275,0.193 0.537,0.375 0.816,0.571c1.738,0.987 3.581,2.036 5.516,3.136c7.902,4.398 14.227,6.537 18.402,7.77c4.073,1.425 6.245,1.435 6.302,1.435m9.498,1.798l14.579,-20.807l-14.579,20.807m3.93,0.491c0.061,0 0.01,-0.018 -0.172,-0.057c-0.208,-0.048 -0.256,-0.069 -0.16,-0.069c0.25,0 1.49,0.142 3.504,0.305c1.6,0.013 3.53,0.022 5.666,0.038c1.084,0.013 2.217,0.022 3.387,0.035l1.416,0.02l0.193,-0.02l0.407,-0.038l0.82,-0.077c7.552,-0.433 15.77,-1.909 19.628,-2.841l-22.291,-15.889l-12.988,18.533c0.316,0.039 0.521,0.06 0.59,0.06m35.019,-283.024l-4.441,8.521l-26.702,51.244c-2.265,0.099 -4.507,0.241 -6.687,0.425c-2.526,0.198 -4.843,0.571 -6.702,0.872c-1.05,0.17 -1.956,0.316 -2.728,0.406l-0.045,0.005l-0.045,0.007c-1.529,0.222 -2.634,0.338 -3.148,0.388c-0.055,-0.002 -0.107,-0.003 -0.164,-0.003c-0.23,0 -0.518,0 -1.52,0.191c-0.596,-0.489 -1.367,-0.779 -2.211,-0.779c-0.001,0 -0.003,0 -0.003,0c-0.28,0 -0.581,0.029 -0.942,0.094l-0.1,0.018l-0.097,0.022l-0.209,0.049c-5.434,1.259 -10.735,2.951 -15.335,4.895c-7.77,2.943 -17.139,8.087 -21.035,10.646c-0.248,0.156 -0.596,0.365 -1.001,0.607c-1.039,0.622 -2.461,1.475 -4.148,2.643l-0.067,0.046l-0.066,0.052l-2.663,2.049l-5.499,4.228c-2.148,1.697 -3.883,3.36 -5.719,5.12c-0.942,0.902 -1.917,1.835 -2.953,2.774l-1.135,1.072l-0.728,0.711l-0.092,0.091l-0.085,0.096l-0.273,0.315l-0.547,0.624l-2.217,2.548l-4.449,5.157l-0.064,0.074l-0.058,0.078c-6.771,8.861 -11.912,17.195 -15.715,25.476c-3.207,6.636 -5.079,12.221 -6.891,17.62l-0.257,0.77l-0.029,0.088l-0.025,0.089c-2.346,8.542 -3.564,14.028 -3.835,17.246c-0.267,2.118 -0.409,3.294 0.022,4.279c-0.067,0.822 -0.043,1.839 0.82,2.796l0.408,0.453c-0.195,2.438 -0.321,4.807 -0.376,7.071c-1.425,0.383 -2.19,0.566 -2.535,0.566c-0.089,0 -0.177,-0.007 -0.273,-0.015l-1.181,-0.102l-0.861,-0.072l-0.787,0.36l-2.384,1.091c-0.626,0.286 -1.079,0.482 -1.422,0.616l-0.218,-0.862l-2.621,-0.021c-0.592,0 -1.146,0.113 -2.85,0.715l-1.387,-0.01c-1.2,0 -2.818,0.783 -3.678,1.25c-0.492,0.267 -1.944,0.933 -3.242,1.458c-1.393,0.563 -4.266,1.923 -6.535,3.095c-1.327,0.688 -2.693,1.395 -3.17,1.576c-0.033,-0.001 -0.068,-0.004 -0.104,-0.008c-0.408,-0.028 -0.709,-0.045 -0.917,-0.045c-2.204,0 -3.065,1.535 -3.276,2.006c-0.032,0.072 -0.066,0.151 -0.095,0.236c-1.474,0.631 -2.297,0.848 -2.67,0.922c-0.711,-0.259 -1.39,-0.308 -1.788,-0.308c-0.381,0 -0.75,0.04 -1.102,0.122c-1.457,0.34 -4.806,1.767 -6.665,2.666c-1.412,0.685 -4.034,1.957 -3.394,4.753c0.188,0.815 0.949,2.712 3.952,2.712c0.098,0 0.204,0 0.316,-0.004c0.517,0.268 1.185,0.449 2.048,0.449c0.426,0 0.965,-0.032 1.71,-0.104c-0.812,0.6 -1.39,1.437 -1.387,2.709l0.003,2.116c-0.17,0.158 -0.332,0.323 -0.479,0.497c-2.194,1.046 -2.109,2.958 -2.021,3.562c0.069,0.468 0.569,2.805 3.645,2.884l0.042,0.002l0.09,0c1.088,0 2.467,-0.319 8.209,-1.896c4.392,-1.208 5.793,-1.526 6.229,-1.608c0.01,0 0.016,0 0.025,0c0.859,0 1.793,-0.264 2.854,-0.803c0.737,-0.377 1.274,-0.544 2.521,-0.557c1.803,-0.02 2.465,-0.226 4.137,-1.031c0.24,-0.117 0.508,-0.234 0.795,-0.354c0.531,0.354 1.204,0.575 2.015,0.575c0.679,0 1.608,-0.142 2.104,-0.225c0.043,-0.009 0.083,-0.015 0.121,-0.021c0.512,0.219 1.146,0.357 1.928,0.357c1.09,0 2.61,-0.248 4.645,-0.759c1.438,-0.359 5.305,-1.267 8.438,-1.98c0.933,-0.214 2.033,-0.467 2.968,-0.672c0.41,1.88 0.818,3.545 1.233,5.039l0.019,0.065l0.021,0.066c0.665,2.054 1.148,3.582 1.499,4.719l-0.746,0.3l1.299,3.684c0.439,1.438 1.082,2.889 1.602,4.058c0.232,0.526 0.521,1.179 0.593,1.409l0.028,0.087l0.033,0.087c0.434,1.145 1.287,2.829 2.074,3.833c0.24,0.312 0.924,1.491 1.371,2.513l0.03,0.072l0.035,0.07c0.929,1.874 1.604,3.33 2.003,4.241c-0.062,0.534 -0.014,1.115 0.145,1.737l0.018,0.072l0.021,0.071c0.383,1.272 1.051,2.744 3.339,6.501l0.042,0.068l0.045,0.067l2.303,3.396l0.656,0.968l-20.436,39.221l-3.773,7.24l7.742,-2.595l11.131,-3.731l0.002,-0.002l0.314,-0.102l29.437,-9.938c0.839,0.962 2.226,1.857 3.97,2.926c0.736,0.496 1.869,1.106 3.174,1.812c1.023,0.553 2.082,1.124 3,1.666c1.368,0.828 3.483,1.944 5.758,3.003c0.244,0.587 0.707,1.205 1.521,1.776l0.08,0.056l0.082,0.052l0.17,0.104c4.725,2.951 9.674,5.508 14.318,7.393c7.586,3.418 17.846,6.401 22.404,7.344c0.294,0.066 0.695,0.168 1.164,0.285c1.168,0.293 2.768,0.693 4.768,1.06l0.082,0.015l0.084,0.012l3.242,0.425l6.968,0.91c2.716,0.318 5.112,0.368 7.649,0.423c1.311,0.027 2.664,0.057 4.065,0.125l1.562,0.047l1.017,0.012l0.132,0.002l0.132,-0.01l0.415,-0.029l0.832,-0.058l3.356,-0.231l6.794,-0.504l0.097,-0.007l0.097,-0.013c11.052,-1.477 20.578,-3.733 29.129,-6.9c0.885,-0.307 1.801,-0.642 2.752,-1.005l22.431,15.986l0.044,0.03l0.043,0.029l0.527,0.351l0.004,0.002l7.016,4.947l6.582,4.642l-1.443,-7.925l-6.113,-33.563c0.488,-0.363 0.914,-0.699 1.285,-1.012c1.385,-1.076 2.527,-1.974 3.013,-3.05c0.61,-0.535 1.594,-1.593 1.385,-3.122c2.835,-2.414 5.817,-5.141 8.591,-8.034c2.252,-2.424 4.201,-4.713 5.922,-6.733c0.789,-0.925 1.516,-1.778 2.178,-2.534c1.098,-0.3 1.727,-1.183 2.706,-2.558l0.034,-0.047l0.03,-0.047c0.107,-0.16 0.264,-0.391 0.456,-0.679c1.059,-1.56 3.26,-4.808 5.112,-8.091l0.034,-0.059l0.03,-0.062c0.984,-1.921 1.721,-3.343 2.277,-4.395l0.739,0.317l1.687,-3.526c0.704,-1.318 1.272,-2.792 1.73,-3.979c0.209,-0.54 0.468,-1.213 0.579,-1.427l0.047,-0.088l0.04,-0.092c0.502,-1.119 1.089,-2.911 1.241,-4.171c0.051,-0.396 0.399,-1.703 0.809,-2.747l0.028,-0.072l0.026,-0.076c0.668,-1.984 1.221,-3.49 1.582,-4.417c0.393,-0.312 0.777,-0.742 1.126,-1.333l0.036,-0.056l0.029,-0.059c0.629,-1.161 1.199,-2.673 2.242,-6.97l0.02,-0.078l0.015,-0.079c0.644,-3.352 1.603,-8.353 2.165,-11.306l0.025,-0.131l0.015,-0.13c0.604,-5.504 0.711,-6.222 1.153,-7.688l0.609,-2.067l0.141,-0.469l-0.005,-0.491l-0.021,-2.362l-0.001,-0.15l-0.015,-0.149l-0.212,-2.097c-0.337,-3.293 -0.348,-4.339 -0.213,-5.637l0.003,-0.032c0.88,-0.51 1.508,-1.422 1.65,-2.53l0.004,-0.033l0.013,-0.108l0.02,-0.177l0,-0.179l0,-0.685l0,-0.121l-0.01,-0.12l-0.007,-0.109l-0.013,-0.164l-0.003,-0.049l-0.007,-0.05l-0.01,-0.109l-0.079,-0.751l-0.349,-2.635l-0.03,-0.229c-0.079,-0.55 -0.146,-1.044 -0.204,-1.484c0.492,-0.783 0.694,-1.988 -0.352,-6.354c-0.17,-0.868 -0.535,-2.091 -0.955,-3.5c-0.334,-1.123 -0.682,-2.284 -0.949,-3.323c-0.503,-2.051 -1.779,-6.167 -3.355,-9.826c1.625,-0.5 3.253,-1.027 3.852,-1.308l2.397,-1.121l-0.521,-2.577c0.471,-0.112 0.939,-0.222 1.404,-0.331c9.129,-2.131 9.155,-2.138 9.985,-3.483c7.729,-1.807 9.093,-2.212 9.866,-2.558c0.174,-0.066 0.978,-0.306 4.179,-0.875c2.364,-0.422 5.131,-0.97 6.3,-1.247c1.689,-0.396 2.508,-1.181 2.88,-1.987l4.45,-0.882l-0.907,-1.488c1.57,-0.41 3.671,-0.934 5.337,-1.325c1.38,-0.326 2.386,-0.57 3.045,-0.738c0.773,-0.197 2.874,-0.733 3.344,-2.595c1.078,-0.244 1.959,-0.45 2.629,-0.612c1.614,-0.394 4.32,-1.052 3.998,-3.984l-0.321,-2.934l-3.002,-0.01c-0.08,0 -0.183,0.003 -0.31,0.013c-1.237,0.092 -7.549,1.554 -8.263,1.72c-3.678,0.855 -9.699,2.143 -13.428,2.871c-0.827,0.161 -1.894,0.378 -3.127,0.634l-0.167,-1.523l-3.002,-0.01c-0.132,0 -0.394,0.012 -0.778,0.06c-0.999,0.127 -5.195,0.994 -8.641,1.745c-2.231,0.487 -4.43,0.937 -6.413,1.32l-0.114,-0.623l-5.144,0.794c-3.95,0.611 -9.998,1.695 -19.428,3.487c-0.529,-0.994 -1.045,-1.986 -1.206,-2.453c-0.007,-1.233 -0.482,-2.594 -0.905,-3.41l-0.022,-0.043l-0.024,-0.042l-0.051,-0.092c-0.441,-0.796 -1.363,-2.452 -2.642,-4.221l-0.052,-0.07l-0.055,-0.069l-2.086,-2.573l-1.957,-2.415c-0.994,-1.169 -1.689,-1.957 -2.313,-2.483c-0.898,-1.345 -1.668,-2.402 -2.102,-3.003l-0.129,-0.177c-2.272,-3.27 -5.648,-7.85 -8.646,-10.836c-6.56,-7.057 -18.752,-20.135 -44.442,-31.37l-0.093,-0.042l-0.1,-0.037c-2.465,-0.896 -4.996,-1.817 -7.396,-2.635l-10.182,-55.903l-1.716,-9.456l0,0zm-73.607,99.416c0.447,-0.366 1.814,-1.407 4.391,-2.645l0.076,-0.037l0.076,-0.04c3.561,-1.942 9.287,-4.81 17.83,-7.246l4.201,-1.153l1.195,-0.329l-39.85,76.48c-1.678,0.331 -3.252,0.632 -4.832,0.924c-4.365,0.804 -7.041,1.304 -8.672,1.639c-1.49,0.306 -3.018,0.619 -3.922,1.584c-0.852,0.465 -1.286,1.12 -1.502,1.727c-1.676,0.388 -3.441,0.801 -5.08,1.191c-1.734,0.412 -3.279,0.772 -4.586,1.073l-2.416,-0.007c-0.471,0 -0.847,0.087 -1.596,0.259c-0.482,0.111 -1.502,0.409 -2.674,0.768c0.142,-0.877 0.289,-1.845 0.441,-2.841c0.192,-1.268 0.389,-2.565 0.582,-3.716c0.275,-0.984 0.547,-2.158 0.832,-3.396c0.58,-2.52 1.304,-5.654 2.201,-7.604l0.055,-0.122l0.047,-0.126c1.021,-2.803 1.777,-4.754 2.228,-5.92c0.474,-1.229 0.85,-2.202 0.599,-3.221c0.525,-1.012 1.492,-3.159 2.242,-4.981l0.022,-0.06l0.022,-0.06c0.363,-0.99 1.547,-2.974 2.498,-4.567c0.504,-0.843 0.996,-1.672 1.417,-2.418l0.024,-0.043l0.023,-0.045c1.019,-1.946 6.318,-10.004 12.219,-16.621l0.038,-0.043l0.037,-0.045l0.526,-0.634l0.264,-0.32l0.006,-0.007l0.896,-0.876c0.838,-0.819 1.651,-1.615 2.426,-2.378l0.684,-0.674l3.268,-3.222c0.723,-0.612 1.313,-1.102 1.747,-1.462c0.386,-0.32 0.823,-0.684 1.196,-1.111c0.534,-0.415 1.338,-1.031 2.172,-1.67l1.555,-1.193c1.762,-1.174 3.225,-2.105 4.295,-2.789c1.406,-0.894 2.269,-1.444 2.799,-2.023l0,0zm99.561,43.09l-8.772,-48.164c1.766,0.809 3.525,1.696 5.173,2.721l0.077,0.049l0.08,0.043c2.854,1.563 5.6,3.109 7.838,4.844l0.051,0.038l0.051,0.037c0.557,0.397 1.125,0.793 1.699,1.193c1.936,1.347 3.938,2.739 5.619,4.351l0.06,0.057l0.062,0.053l3.709,3.218l0.926,0.798l0.308,0.267l0.003,0.005l1.75,1.862c0.785,0.859 1.63,1.744 2.451,2.604c1.416,1.481 2.751,2.879 3.633,4.015l1.711,2.284l1.847,2.461c2.235,2.961 4.842,7.179 6.884,10.828c-0.775,0.135 -1.344,0.229 -1.65,0.271c-1.488,0.21 -5.025,0.831 -7.891,1.386c-5.172,1.006 -12.931,2.454 -25.619,4.779l0,0zm4.449,24.436c3.941,-0.86 8.175,-1.791 11.926,-2.623c7.621,-1.69 18.143,-4.003 22.631,-4.96c1.812,-0.39 3.896,-0.854 5.939,-1.322c1.203,4.251 2.315,9.184 2.909,11.817c0.204,0.908 0.355,1.567 0.433,1.875l0.013,0.052l0.015,0.05c0.131,0.452 0.33,0.838 0.576,1.161c0.049,1.037 0.143,2.176 0.256,3.412c0.019,0.354 0.065,0.861 0.125,1.45c0.104,1.019 0.241,2.413 0.199,3.32l-0.132,5.604l-0.063,2.651c-0.311,3.33 -0.529,5.187 -0.671,6.218c-0.771,1.052 -1.02,2.652 -1.252,4.236c-0.861,3.851 -1.094,4.881 -0.575,5.843c-0.208,1.167 -0.417,1.699 -1.226,3.573c-1.472,2.717 -2.001,3.899 -3.857,9.249c-0.376,0.85 -0.759,1.707 -1.124,2.525c-1.269,2.844 -2.001,4.494 -2.27,5.338c-0.301,0.939 -0.521,1.336 -1.116,2.003l-0.031,0.034l-0.029,0.035c-0.869,1.027 -2.109,2.892 -3.16,4.748c-0.775,1.389 -1.254,2.146 -1.475,2.471l-0.09,0.064l-0.305,0.41l-0.068,0.093l-2.402,3.245l-0.031,0.043l-0.031,0.043c-1.291,1.876 -3.061,4.334 -5.291,6.724l-0.078,0.084l-0.072,0.089c-1.389,1.716 -2.799,3.272 -4.313,4.764l-15.36,-84.319l0,0zm-147.121,34.582c0.486,-0.038 1.963,-0.292 9.279,-1.964c1.457,-0.333 2.757,-0.624 3.912,-0.878l-11.455,21.984c-0.046,-0.129 -0.091,-0.257 -0.136,-0.386l-0.027,-0.082l-0.032,-0.079c-1.141,-2.817 -2.312,-5.825 -3.022,-8.887l-0.021,-0.089l-0.025,-0.086c-0.054,-0.182 -0.102,-0.362 -0.15,-0.543c-0.041,-0.158 -0.086,-0.316 -0.13,-0.476c-0.196,-0.933 -0.405,-1.8 -0.621,-2.581c-0.437,-1.533 -0.634,-2.41 -0.706,-2.796l0.016,-0.104l-0.074,-0.497c-0.039,-0.286 -0.131,-0.902 -0.27,-1.834c0.473,-0.08 0.955,-0.177 1.428,-0.288c1.022,-0.24 1.801,-0.383 2.034,-0.414l0,0zm45.134,67.109l14.432,-4.871l4.16,12.655c-0.217,-0.069 -0.438,-0.146 -0.666,-0.226l-0.078,-0.027l-0.08,-0.022c-3.908,-1.153 -9.998,-3.185 -17.731,-7.489l-0.037,-0.02l0,0zm42.127,11.292l7.627,-10.883l13.339,9.508c-3.562,0.572 -7.713,1.097 -11.655,1.321l-0.059,0.004l-0.063,0.006l-0.82,0.078l-0.408,0.038l-0.023,0.003l-1.23,-0.018l-1.504,-0.015l-1.887,-0.021l-2.988,-0.02l-0.329,-0.001l0,0z" fill="#FFD700"/>
   </g>
  </g>
  <g id="svg_19">
   <polygon id="svg_20" points="180.48098754882812,261.6829833984375 195.4320068359375,73.4729995727539 164.14100646972656,285.00299072265625 " fill="#222223"/>
   <polygon id="svg_21" points="161.26699829101562,284.7969970703125 189.99398803710938,89.87299346923828 192.54501342773438,72.55999755859375 152.26300048828125,257.5169982910156 " fill="#ADA416"/>
   <polygon id="svg_22" points="200.51400756835938,47.229000091552734 188.1300048828125,202.98699951171875 183.47198486328125,261.61297607421875 209.40399169921875,280.09698486328125 247.8240203857422,307.4830017089844 " fill="#353535"/>
   <polygon id="svg_23" points="71.99800109863281,282.6609802246094 149.40200805664062,256.5229797363281 195.14498901367188,46.51000213623047 " fill="#F3E600"/>
   <path id="svg_24" d="m203.332,10l-146.332,280.835l11.418,-3.828l0.022,-0.003l81.352,-27.469l10.497,31.943l0.029,0.084c0.1,0.296 0.291,0.537 0.523,0.714c0.051,0.036 0.113,0.049 0.17,0.074c0.209,0.122 0.436,0.216 0.688,0.222c0.455,0 0.879,-0.234 1.163,-0.598c0.015,-0.02 0.042,-0.014 0.055,-0.029l19.313,-27.557l69.857,49.789c0.019,0.013 0.045,0.01 0.065,0.022l7.554,5.327l-56.374,-309.526zm-53.93,246.523l-77.404,26.138l123.145,-236.15l0.002,-0.005l0,0.004l-0.002,0.001l-45.741,210.012zm11.865,28.274l-9.004,-27.282l40.282,-184.954l-2.551,17.313l-28.727,194.923zm19.214,-23.114l-16.339,23.319l31.288,-211.529l-14.949,188.21zm28.923,18.414l-25.933,-18.484l4.658,-58.626l12.384,-155.758l47.311,260.254l-38.42,-27.386z" fill="#010202"/>
  </g>
 </g>
</svg>